<svg xmlns="http://www.w3.org/2000/svg"  viewBox="0 0 24 24" width="192px" height="192px"><path d="M 8 2 C 6.3550302 2 5 3.3550302 5 5 L 5 16 L 3 16 A 1.0001 1.0001 0 0 0 2 17 L 2 19 C 2 20.64497 3.3550302 22 5 22 L 14 22 L 15 22 C 16.64497 22 18 20.64497 18 19 L 18 8 L 21 8 A 1.0001 1.0001 0 0 0 22 7 L 22 5 C 22 3.4284616 20.759624 2.1350333 19.214844 2.0214844 A 1.0001 1.0001 0 0 0 19 2 L 8 2 z M 19 4 C 19.56503 4 20 4.4349698 20 5 L 20 6 L 18 6 L 18 5 C 18 4.4349698 18.43497 4 19 4 z M 4 18 L 5.8320312 18 A 1.0001 1.0001 0 0 0 6.1582031 18 L 11.990234 18 L 12 19.023438 A 1.0001 1.0001 0 0 0 12 19.027344 C 12.004654 19.369889 12.081227 19.693696 12.193359 20 L 5 20 C 4.4349698 20 4 19.56503 4 19 L 4 18 z"/></svg>